<svg width="300" height="54" viewBox="0 0 300 54" fill="none" xmlns="http://www.w3.org/2000/svg">
<path d="M12.4 2.4L12.61 2.19H19.26H25.91L26.12 2.4C26.26 2.49333 26.3767 2.65666 26.47 2.89L32.35 19.55C36.27 30.5167 38.23 36.0233 38.23 36.07C38.23 36.1167 38.2767 36.0467 38.37 35.86C38.5567 35.2533 39.7 30.75 41.8 22.35C44.18 12.83 45.3233 7.90666 45.23 7.58C45.23 7.53333 45.16 7.44 45.02 7.3C44.5067 6.50666 43.0833 6.11 40.75 6.11C40.0967 6.11 39.7 5.94667 39.56 5.62C39.5133 5.43333 39.5833 4.89667 39.77 4.01C40.0033 3.12333 40.2133 2.58666 40.4 2.4L40.61 2.19H41.38C44.1333 2.37667 47.7733 2.42333 52.3 2.33L56.36 2.19H56.92L57.13 2.4C57.3167 2.58666 57.41 2.75 57.41 2.89L56.78 5.69C56.5933 5.97 56.0333 6.11 55.1 6.11C53.56 6.15666 52.2533 6.43666 51.18 6.95C50.48 7.27666 49.9667 7.74333 49.64 8.35C49.5 8.58333 47.75 15.4667 44.39 29C40.9367 42.8133 39.21 49.65 39.21 49.51C39.1633 49.6033 39.07 49.72 38.93 49.86C38.79 49.9533 38.2067 50 37.18 50H35.64L35.43 49.79C35.29 49.6967 32.98 43.35 28.5 30.75C23.74 17.31 21.4067 10.7067 21.5 10.94L21.15 9.96L16.88 26.83C14.08 38.0767 12.68 43.8167 12.68 44.05C12.68 44.3767 12.7033 44.5633 12.75 44.61C13.1233 45.59 14.6167 46.08 17.23 46.08H17.93L18.21 46.29C18.35 46.4767 18.42 46.6633 18.42 46.85C18.42 47.5967 18.1867 48.5067 17.72 49.58C17.58 49.86 17.16 49.9767 16.46 49.93C16.2733 49.93 15.9233 49.93 15.41 49.93C9.57667 49.7433 5.00333 49.7667 1.69 50H1.06L0.85 49.79C0.663334 49.6033 0.57 49.4167 0.57 49.23C0.57 48.4833 0.803334 47.5733 1.27 46.5C1.36333 46.22 1.73667 46.08 2.39 46.08C4.49 46.08 6.07667 45.73 7.15 45.03C7.61667 44.7967 7.99 44.4467 8.27 43.98C8.41 43.7467 10.0433 37.4 13.17 24.94C16.25 12.48 17.7667 6.25 17.72 6.25L14.85 6.11C12.8433 6.11 11.7467 5.94667 11.56 5.62C11.5133 5.48 11.5833 4.94333 11.77 4.01C12.0033 3.12333 12.2133 2.58666 12.4 2.4Z" fill="#E7FF52"/>
<path d="M86.8215 0.719996C88.0815 0.579998 89.3648 0.626665 90.6715 0.859998C95.1515 1.51333 98.6282 3.73 101.101 7.51C101.941 8.81666 102.525 10.0067 102.851 11.08C103.691 13.32 104.135 15.7233 104.181 18.29C104.228 21.8833 103.621 25.5 102.361 29.14C100.635 34.32 97.7648 38.94 93.7515 43C90.1115 46.5933 86.1915 49.0667 81.9915 50.42C75.9248 52.4267 70.6982 51.8433 66.3115 48.67C65.6582 48.2033 65.0515 47.69 64.4915 47.13C60.6648 43.3033 59.0082 38.03 59.5215 31.31C59.8482 27.1567 61.0382 23.0033 63.0915 18.85C66.0782 12.9233 70.1615 8.28 75.3415 4.92C79.0282 2.49333 82.8548 1.09333 86.8215 0.719996ZM88.7115 4.29C86.5182 3.96333 84.2782 4.38333 81.9915 5.55C77.9315 7.46333 74.6415 10.9867 72.1215 16.12C70.8615 18.6867 69.7882 21.7667 68.9015 25.36C67.9215 29.4667 67.4315 32.92 67.4315 35.72C67.4315 38.6133 67.8748 41.0167 68.7615 42.93C70.3482 46.1967 72.7982 47.8767 76.1115 47.97C76.5315 47.97 76.9748 47.9467 77.4415 47.9C81.5482 47.4333 85.3048 44.89 88.7115 40.27C89.9715 38.59 91.0682 36.7233 92.0015 34.67C94.2415 29.6767 95.7115 24.4267 96.4115 18.92C96.5982 17.1467 96.5982 15.35 96.4115 13.53C96.4115 13.4367 96.4115 13.3433 96.4115 13.25C95.8982 10.45 94.9415 8.30333 93.5415 6.81C92.2815 5.41 90.6715 4.57 88.7115 4.29ZM120.044 2.75L120.184 2.61H139.364C152.244 2.61 158.8 2.75 159.034 3.03C159.127 3.26333 158.707 6.06333 157.774 11.43C156.747 16.9367 156.234 19.7133 156.234 19.76C156.094 19.9933 155.464 20.11 154.344 20.11C153.224 20.11 152.617 19.97 152.524 19.69C152.43 19.5033 152.477 18.8033 152.664 17.59C153.364 13.6233 153.55 10.94 153.224 9.54C153.177 8.98 152.897 8.49 152.384 8.07C151.964 7.65 151.357 7.3 150.564 7.02C149.584 6.69333 148.02 6.53 145.874 6.53C143.68 6.53 142.49 6.67 142.304 6.95L132.644 45.66C133.017 45.8933 134.814 46.0333 138.034 46.08C140.18 46.08 141.347 46.2433 141.534 46.57C141.58 46.71 141.51 47.2467 141.324 48.18C141.09 49.0667 140.88 49.6033 140.694 49.79L140.484 50H139.224C133.157 49.7667 126.064 49.7433 117.944 49.93C116.124 49.9767 115.12 49.8367 114.934 49.51C114.887 49.37 114.957 48.8333 115.144 47.9C115.377 47.0133 115.587 46.4767 115.774 46.29L115.984 46.08H118.014C121.047 46.08 122.937 46.01 123.684 45.87C124.197 45.73 124.477 45.66 124.524 45.66C124.757 45.5667 124.92 45.4267 125.014 45.24C125.34 44.54 126.997 38.1233 129.984 25.99C133.204 13.11 134.79 6.67 134.744 6.67C134.604 6.57666 133.367 6.53 131.034 6.53C129.354 6.57667 128.327 6.64667 127.954 6.74C126.834 6.92666 125.877 7.23 125.084 7.65C124.244 8.07 123.567 8.53667 123.054 9.05C121.887 10.2167 120.58 12.9933 119.134 17.38C118.574 18.92 118.294 19.7133 118.294 19.76C118.107 19.9933 117.477 20.11 116.404 20.11C115.284 20.11 114.677 19.97 114.584 19.69C114.49 19.5033 114.444 19.3867 114.444 19.34L119.764 3.1C119.764 2.96 119.857 2.84333 120.044 2.75ZM168.261 2.54C168.354 2.44667 174.398 2.4 186.391 2.4H204.311L204.591 2.61C204.731 2.79666 204.801 2.98333 204.801 3.17L202.491 19.48C202.351 19.62 202.258 19.7133 202.211 19.76C202.118 19.8533 201.604 19.9 200.671 19.9C199.691 19.9 199.131 19.8533 198.991 19.76C198.758 19.62 198.688 18.99 198.781 17.87C199.061 15.9567 199.201 14.3233 199.201 12.97C199.201 10.9633 198.944 9.58667 198.431 8.84C197.918 8 196.984 7.37 195.631 6.95C194.091 6.53 191.011 6.32 186.391 6.32C183.031 6.36667 181.281 6.48333 181.141 6.67C181.094 6.71666 180.348 9.49333 178.901 15L176.871 23.26C176.871 23.3067 177.898 23.33 179.951 23.33C182.518 23.2833 184.174 23.12 184.921 22.84C186.321 22.3733 187.348 21.4167 188.001 19.97C188.328 19.27 188.678 18.22 189.051 16.82C189.284 15.9333 189.471 15.4433 189.611 15.35L189.821 15.14H191.221C192.341 15.14 192.994 15.3033 193.181 15.63C193.228 15.8167 192.481 19.06 190.941 25.36C189.308 31.7533 188.468 34.9733 188.421 35.02C188.328 35.3 187.698 35.44 186.531 35.44H185.131L184.851 35.23C184.664 34.9967 184.688 34.3433 184.921 33.27C185.248 31.7767 185.411 30.61 185.411 29.77L185.271 28.86C185.038 28.2067 184.454 27.7633 183.521 27.53C182.728 27.3433 181.071 27.25 178.551 27.25H175.891L173.581 36.42C172.041 42.6267 171.271 45.7533 171.271 45.8C171.271 45.94 171.411 46.01 171.691 46.01H182.121C185.901 45.73 188.818 44.7267 190.871 43C192.878 41.2733 194.954 37.54 197.101 31.8C197.381 31.0533 197.614 30.5867 197.801 30.4L198.011 30.19H199.481H200.951L201.161 30.4C201.348 30.5867 201.348 30.96 201.161 31.52C200.928 32.2667 199.808 35.2067 197.801 40.34C195.374 46.5933 194.161 49.6967 194.161 49.65C194.068 49.8367 193.344 49.93 191.991 49.93C190.498 49.9767 184.921 50 175.261 50H156.851L156.571 49.79C156.431 49.5567 156.361 49.37 156.361 49.23C156.361 48.4833 156.594 47.5733 157.061 46.5C157.621 46.22 158.508 46.08 159.721 46.08C161.821 46.0333 163.011 45.94 163.291 45.8C163.524 45.66 163.711 45.38 163.851 44.96C164.178 44.0733 165.788 37.75 168.681 25.99C171.901 13.11 173.488 6.67 173.441 6.67C173.208 6.43667 171.784 6.32 169.171 6.32H167.771L167.491 6.11C167.258 5.83 167.281 5.17667 167.561 4.15C167.841 3.17 168.074 2.63333 168.261 2.54ZM228.722 0.789999C230.122 0.556666 231.569 0.603332 233.062 0.929998C234.462 1.21 235.699 1.7 236.772 2.4C237.332 2.77333 237.986 3.38 238.732 4.22C238.872 4.45333 238.966 4.59333 239.012 4.64L240.902 2.68C242.209 1.37333 242.886 0.719996 242.932 0.719996C242.932 0.67333 243.142 0.649997 243.562 0.649997C244.076 0.649997 244.402 0.789997 244.542 1.07C244.589 1.25666 243.936 4.05666 242.582 9.47C241.182 14.9767 240.436 17.7767 240.342 17.87L240.132 18.08H238.662C237.449 18.08 236.796 17.9633 236.702 17.73C236.656 17.5433 236.679 17.1467 236.772 16.54C237.519 11.64 236.912 8.21 234.952 6.25C233.879 5.13 232.339 4.5 230.332 4.36C228.046 4.31333 225.969 5.22333 224.102 7.09C223.122 8.07 222.376 9.07333 221.862 10.1C221.022 11.8733 220.626 13.5767 220.672 15.21C220.719 16.2833 220.906 17.1233 221.232 17.73C221.699 18.71 222.352 19.41 223.192 19.83C223.286 19.8767 224.779 20.3433 227.672 21.23C230.892 22.1633 232.806 22.8167 233.412 23.19C236.399 24.9167 237.939 27.9267 238.032 32.22C238.079 35.6267 237.122 39.0333 235.162 42.44C233.669 45.1 231.639 47.2933 229.072 49.02C227.299 50.1867 225.456 50.9567 223.542 51.33C223.076 51.4233 222.306 51.47 221.232 51.47C219.646 51.47 218.292 51.33 217.172 51.05C214.886 50.4433 213.042 49.4167 211.642 47.97L211.082 47.41L209.192 49.37L207.162 51.47L206.462 51.54H206.392C206.019 51.54 205.762 51.47 205.622 51.33C205.482 51.19 205.412 51.0733 205.412 50.98C205.412 50.84 206.766 45.3567 209.472 34.53C209.799 34.25 210.452 34.11 211.432 34.11H212.902L213.112 34.32C213.299 34.5067 213.322 34.9733 213.182 35.72C213.182 35.8133 213.159 35.93 213.112 36.07C212.552 38.8233 212.692 41.1333 213.532 43C214.512 45.4267 216.566 46.8967 219.692 47.41C221.046 47.6433 222.119 47.69 222.912 47.55C225.386 47.13 227.532 45.4733 229.352 42.58C230.052 41.46 230.589 40.27 230.962 39.01C231.242 37.9833 231.382 36.84 231.382 35.58C231.382 34.3667 231.242 33.4333 230.962 32.78C230.496 31.6133 229.796 30.82 228.862 30.4C228.536 30.2133 227.019 29.7233 224.312 28.93C221.512 28.1367 219.856 27.6233 219.342 27.39C218.409 26.9233 217.546 26.2933 216.752 25.5C214.699 23.3533 213.812 20.5533 214.092 17.1C214.372 13.74 215.609 10.5433 217.802 7.51C218.969 6.06333 220.206 4.85 221.512 3.87C223.846 2.09666 226.249 1.07 228.722 0.789999ZM251.439 40.9C252.512 40.7133 253.469 40.8533 254.309 41.32C255.802 42.16 256.386 43.49 256.059 45.31C255.826 46.3367 255.312 47.27 254.519 48.11C252.932 49.79 251.206 50.3733 249.339 49.86C248.779 49.6733 248.266 49.37 247.799 48.95C246.539 47.7833 246.329 46.2433 247.169 44.33C247.776 43.07 248.709 42.1133 249.969 41.46C250.529 41.18 251.019 40.9933 251.439 40.9ZM272.904 40.9C273.977 40.7133 274.934 40.8533 275.774 41.32C277.267 42.16 277.851 43.49 277.524 45.31C277.291 46.3367 276.777 47.27 275.984 48.11C274.397 49.79 272.671 50.3733 270.804 49.86C270.244 49.6733 269.731 49.37 269.264 48.95C268.004 47.7833 267.794 46.2433 268.634 44.33C269.241 43.07 270.174 42.1133 271.434 41.46C271.994 41.18 272.484 40.9933 272.904 40.9ZM294.369 40.9C295.442 40.7133 296.399 40.8533 297.239 41.32C298.732 42.16 299.315 43.49 298.989 45.31C298.755 46.3367 298.242 47.27 297.449 48.11C295.862 49.79 294.135 50.3733 292.269 49.86C291.709 49.6733 291.195 49.37 290.729 48.95C289.469 47.7833 289.259 46.2433 290.099 44.33C290.705 43.07 291.639 42.1133 292.899 41.46C293.459 41.18 293.949 40.9933 294.369 40.9Z" fill="white"/>
</svg>
